<svg width="1200" height="1200" viewBox="0 0 1200 1200" fill="none" xmlns="http://www.w3.org/2000/svg">
<mask id="mask0_6_68" style="mask-type:alpha" maskUnits="userSpaceOnUse" x="0" y="0" width="1200" height="1200">
<rect width="1200" height="1200" rx="16" fill="#D9D9D9"/>
</mask>
<g mask="url(#mask0_6_68)">
<rect x="-110" y="-110" width="1420" height="1420" rx="16" fill="black"/>
<rect x="300" y="1100" width="300" height="100" fill="#00D1FF"/>
<rect y="1100" width="300" height="100" fill="#EB00FF"/>
<rect x="600" y="1100" width="300" height="100" fill="#FFE600"/>
<rect x="900" y="1100" width="300" height="100" fill="#FF0000"/>
<path d="M647 521H602H557H512V476V431V386V341V296V251V206V161V116H557H602H647H692V161H737V206V251V296V341V386V431V476H692V521H647ZM647 476V431V386V341V296V251V206V161H602V206V251V296V341V386V431V476H647ZM917 521H872H827V476H782V431V386V341V296V251V206V161H827V116H872H917H962V161H1007V206V251V296V341V386V431V476H962V521H917ZM917 476V431V386V341V296V251V206V161H872V206V251V296V341V386V431V476H917Z" fill="white"/>
<path d="M637 985H592H547H502V940H547H592H637V895V850V805H592H547V760H502V715V670V625H547V580H592H637H682H727V625H682H637H592V670V715V760H637H682V805H727V850V895V940H682V985H637ZM952 985H907V940V895V850V805H862V850V895V940V985H817H772V940V895V850V805V760V715V670V625V580H817H862V625V670V715V760H907V715V670V625V580H952H997V625V670V715V760V805V850V895V940V985H952Z" fill="white"/>
<path d="M190 509H150H110V469H150V429H190V389H230V349H270V309H230V269H190V229H150V189H110V149H150H190H230V189H270V229H310V269H350V309H390V349H350V389H310V429H270V469H230V509H190Z" fill="white"/>
</g>
</svg>
